<?xml version="1.0" encoding="UTF-8" standalone="no"?>
<!DOCTYPE svg PUBLIC "-//W3C//DTD SVG 1.1//EN"
 "http://www.w3.org/Graphics/SVG/1.1/DTD/svg11.dtd">
<!-- Generated by graphviz version 2.38.0 (20140413.2041)
 -->
<!-- Title: %3 Pages: 1 -->
<svg width="89pt" height="228pt"
 viewBox="0.00 0.00 88.61 228.11" xmlns="http://www.w3.org/2000/svg" xmlns:xlink="http://www.w3.org/1999/xlink">
<g id="graph0" class="graph" transform="scale(1 1) rotate(0) translate(4 224.108)">
<title>%3</title>
<polygon fill="white" stroke="none" points="-4,4 -4,-224.108 84.6102,-224.108 84.6102,4 -4,4"/>
<!-- A -->
<g id="node1" class="node"><title>A</title>
<polygon fill="lightgray" stroke="black" points="27.8051,-220.108 4.80509,-220.108 4.80509,-202.108 27.8051,-202.108 27.8051,-220.108"/>
<text text-anchor="middle" x="16.3051" y="-208.908" font-family="Times,serif" font-size="9.00">A</text>
</g>
<!-- A XOR B -->
<g id="node3" class="node"><title>A XOR B</title>
<ellipse fill="lightblue" stroke="black" cx="40.3051" cy="-40.3051" rx="40.1111" ry="40.1111"/>
<text text-anchor="middle" x="40.3051" y="-38.1051" font-family="Times,serif" font-size="9.00">A XOR B</text>
</g>
<!-- A&#45;&gt;A XOR B -->
<g id="edge5" class="edge"><title>A&#45;&gt;A XOR B</title>
<path fill="none" stroke="red" stroke-width="0.386645" d="M13.7311,-202.013C8.91439,-185.69 -0.394662,-147.73 6.30509,-116.61 8.57005,-106.089 12.4275,-95.2676 16.7496,-85.2247"/>
<polygon fill="red" stroke="red" stroke-width="0.386645" points="20.0498,-86.4221 20.999,-75.8698 13.6765,-83.527 20.0498,-86.4221"/>
</g>
<!-- 134 -->
<g id="node4" class="node"><title>134</title>
<ellipse fill="white" stroke="black" cx="40.3051" cy="-141.359" rx="25" ry="25"/>
<text text-anchor="middle" x="40.3051" y="-139.159" font-family="Times,serif" font-size="9.00">134</text>
</g>
<!-- A&#45;&gt;134 -->
<g id="edge1" class="edge"><title>A&#45;&gt;134</title>
<path fill="none" stroke="green" stroke-width="0.594579" d="M19.1524,-202.07C21.5989,-195.164 25.295,-184.73 28.9166,-174.507"/>
<polygon fill="green" stroke="green" stroke-width="0.594579" points="32.2827,-175.487 32.3228,-164.892 25.6845,-173.149 32.2827,-175.487"/>
</g>
<!-- B -->
<g id="node2" class="node"><title>B</title>
<polygon fill="lightgray" stroke="black" points="74.8051,-220.108 51.8051,-220.108 51.8051,-202.108 74.8051,-202.108 74.8051,-220.108"/>
<text text-anchor="middle" x="63.3051" y="-208.908" font-family="Times,serif" font-size="9.00">B</text>
</g>
<!-- B&#45;&gt;A XOR B -->
<g id="edge4" class="edge"><title>B&#45;&gt;A XOR B</title>
<path fill="none" stroke="red" stroke-width="0.247182" d="M66.0237,-202.019C71.1194,-185.707 81.0128,-147.767 74.3051,-116.61 72.0401,-106.089 68.1826,-95.2676 63.8606,-85.2247"/>
<polygon fill="red" stroke="red" stroke-width="0.247182" points="66.9336,-83.527 59.6112,-75.8698 60.5603,-86.4221 66.9336,-83.527"/>
</g>
<!-- B&#45;&gt;134 -->
<g id="edge2" class="edge"><title>B&#45;&gt;134</title>
<path fill="none" stroke="green" stroke-width="0.42659" d="M60.5764,-202.07C58.2499,-195.217 54.7442,-184.891 51.2992,-174.743"/>
<polygon fill="green" stroke="green" stroke-width="0.42659" points="54.5843,-173.532 48.0553,-165.188 47.9558,-175.782 54.5843,-173.532"/>
</g>
<!-- 134&#45;&gt;A XOR B -->
<g id="edge3" class="edge"><title>134&#45;&gt;A XOR B</title>
<path fill="none" stroke="green" stroke-width="0.581019" d="M40.3051,-116.381C40.3051,-108.726 40.3051,-99.9506 40.3051,-91.1612"/>
<polygon fill="green" stroke="green" stroke-width="0.581019" points="43.8052,-90.903 40.3051,-80.9031 36.8052,-90.9031 43.8052,-90.903"/>
</g>
</g>
</svg>
